<svg width="310.464" height="26.064" viewBox="0 0 310.464 26.064" xmlns="http://www.w3.org/2000/svg"><g id="svgGroup" stroke-linecap="round" fill-rule="evenodd" font-size="9pt" stroke="#000" stroke-width="0.25mm" fill="#000" style="stroke:#000;stroke-width:0.25mm;fill:#000"><path d="M 132.444 25.632 L 129.204 25.632 L 129.204 0.432 L 133.74 0.432 L 144.864 21.384 L 144.864 0.432 L 148.104 0.432 L 148.104 25.632 L 143.64 25.632 L 132.444 4.824 L 132.444 25.632 Z M 74.376 2.052 L 73.116 4.896 Q 71.604 4.068 70.038 3.528 Q 68.472 2.988 66.564 2.988 A 7.247 7.247 0 0 0 63.869 3.482 A 6.811 6.811 0 0 0 62.532 4.194 A 7.306 7.306 0 0 0 60.615 6.145 A 9.885 9.885 0 0 0 59.742 7.74 A 11.381 11.381 0 0 0 59.006 10.163 Q 58.716 11.666 58.716 13.464 Q 58.716 16.095 59.425 18.059 A 9.373 9.373 0 0 0 59.652 18.63 A 8.705 8.705 0 0 0 60.708 20.447 A 6.877 6.877 0 0 0 62.244 21.924 A 6.455 6.455 0 0 0 65.775 23.071 A 7.918 7.918 0 0 0 66.06 23.076 A 8.194 8.194 0 0 0 68.075 22.837 A 6.78 6.78 0 0 0 69.642 22.23 Q 70.841 21.582 71.65 20.903 A 7.178 7.178 0 0 0 72.108 20.484 L 72.108 14.976 L 66.888 14.976 L 66.888 12.276 L 75.348 12.276 L 75.348 25.632 L 72.324 25.632 L 72.324 23.112 A 12.918 12.918 0 0 1 70.748 24.297 A 17.047 17.047 0 0 1 69.264 25.146 A 8.494 8.494 0 0 1 65.878 26.046 A 10.127 10.127 0 0 1 65.268 26.064 A 9.566 9.566 0 0 1 61.915 25.488 A 8.824 8.824 0 0 1 60.084 24.552 Q 57.816 23.04 56.52 20.25 A 13.51 13.51 0 0 1 55.473 16.805 A 18.661 18.661 0 0 1 55.224 13.68 A 20.268 20.268 0 0 1 55.525 10.11 A 15.326 15.326 0 0 1 56.592 6.57 Q 57.96 3.492 60.534 1.746 A 10.02 10.02 0 0 1 64.627 0.162 A 13.343 13.343 0 0 1 66.744 0 Q 69.084 0 70.92 0.576 Q 72.756 1.152 74.376 2.052 Z M 237.528 2.052 L 236.268 4.896 Q 234.756 4.068 233.19 3.528 Q 231.624 2.988 229.716 2.988 A 7.247 7.247 0 0 0 227.021 3.482 A 6.811 6.811 0 0 0 225.684 4.194 A 7.306 7.306 0 0 0 223.767 6.145 A 9.885 9.885 0 0 0 222.894 7.74 A 11.381 11.381 0 0 0 222.158 10.163 Q 221.868 11.666 221.868 13.464 Q 221.868 16.095 222.577 18.059 A 9.373 9.373 0 0 0 222.804 18.63 A 8.705 8.705 0 0 0 223.86 20.447 A 6.877 6.877 0 0 0 225.396 21.924 A 6.455 6.455 0 0 0 228.927 23.071 A 7.918 7.918 0 0 0 229.212 23.076 A 8.194 8.194 0 0 0 231.227 22.837 A 6.78 6.78 0 0 0 232.794 22.23 Q 233.993 21.582 234.802 20.903 A 7.178 7.178 0 0 0 235.26 20.484 L 235.26 14.976 L 230.04 14.976 L 230.04 12.276 L 238.5 12.276 L 238.5 25.632 L 235.476 25.632 L 235.476 23.112 A 12.918 12.918 0 0 1 233.9 24.297 A 17.047 17.047 0 0 1 232.416 25.146 A 8.494 8.494 0 0 1 229.03 26.046 A 10.127 10.127 0 0 1 228.42 26.064 A 9.566 9.566 0 0 1 225.067 25.488 A 8.824 8.824 0 0 1 223.236 24.552 Q 220.968 23.04 219.672 20.25 A 13.51 13.51 0 0 1 218.625 16.805 A 18.661 18.661 0 0 1 218.376 13.68 A 20.268 20.268 0 0 1 218.677 10.11 A 15.326 15.326 0 0 1 219.744 6.57 Q 221.112 3.492 223.686 1.746 A 10.02 10.02 0 0 1 227.779 0.162 A 13.343 13.343 0 0 1 229.896 0 Q 232.236 0 234.072 0.576 Q 235.908 1.152 237.528 2.052 Z M 96.048 25.632 L 80.928 25.632 L 80.928 0.432 L 96.048 0.432 L 96.048 3.384 L 84.348 3.384 L 84.348 11.052 L 94.428 11.052 L 94.428 13.932 L 84.348 13.932 L 84.348 22.68 L 96.048 22.68 L 96.048 25.632 Z M 169.704 25.632 L 154.584 25.632 L 154.584 0.432 L 169.704 0.432 L 169.704 3.384 L 158.004 3.384 L 158.004 11.052 L 168.084 11.052 L 168.084 13.932 L 158.004 13.932 L 158.004 22.68 L 169.704 22.68 L 169.704 25.632 Z M 17.892 24.552 L 14.688 26.064 L 11.556 19.224 A 11.011 11.011 0 0 0 10.623 17.578 Q 10.017 16.706 9.298 16.107 A 5.836 5.836 0 0 0 8.568 15.588 A 7.075 7.075 0 0 0 6.588 14.795 Q 5.703 14.58 4.667 14.526 A 13.625 13.625 0 0 0 3.96 14.508 L 3.42 14.508 L 3.42 25.632 L 0 25.632 L 0 0.504 Q 1.908 0.324 3.654 0.234 A 67.658 67.658 0 0 1 5.928 0.157 A 81.455 81.455 0 0 1 7.38 0.144 Q 11.988 0.144 14.31 2.016 A 6.269 6.269 0 0 1 15.977 4.008 Q 16.629 5.267 16.632 6.828 A 7.497 7.497 0 0 1 16.632 6.84 A 7.157 7.157 0 0 1 16.398 8.719 A 5.282 5.282 0 0 1 15.066 11.07 A 7.568 7.568 0 0 1 13.293 12.394 Q 12.484 12.84 11.49 13.179 A 14.931 14.931 0 0 1 10.548 13.464 A 8.516 8.516 0 0 1 11.782 14.135 A 7.354 7.354 0 0 1 12.276 14.49 A 6.326 6.326 0 0 1 13.018 15.182 Q 13.383 15.579 13.734 16.074 Q 14.265 16.822 14.806 17.91 A 23.466 23.466 0 0 1 15.156 18.648 L 17.892 24.552 Z M 291.888 24.732 L 288.756 25.992 L 285.948 18.792 L 274.284 18.792 L 271.476 25.92 L 268.56 24.732 L 278.424 0.432 L 282.168 0.432 L 291.888 24.732 Z M 262.26 25.632 L 258.84 25.632 L 258.84 3.456 L 251.1 3.456 L 251.1 0.432 L 270 0.432 L 270 3.456 L 262.26 3.456 L 262.26 25.632 Z M 115.884 25.632 L 100.908 25.632 L 100.908 0.432 L 104.328 0.432 L 104.328 22.572 L 115.884 22.572 L 115.884 25.632 Z M 310.464 25.632 L 295.488 25.632 L 295.488 0.432 L 298.908 0.432 L 298.908 22.572 L 310.464 22.572 L 310.464 25.632 Z M 32.112 25.56 L 32.112 0.504 Q 33.804 0.324 35.424 0.234 A 54.471 54.471 0 0 1 36.931 0.173 Q 37.701 0.151 38.554 0.146 A 92.38 92.38 0 0 1 39.132 0.144 A 17.499 17.499 0 0 1 41.776 0.334 Q 43.394 0.581 44.73 1.152 A 11.152 11.152 0 0 1 47.354 2.707 A 9.8 9.8 0 0 1 48.618 3.924 Q 50.148 5.688 50.886 8.01 A 15.932 15.932 0 0 1 51.596 11.969 A 18.542 18.542 0 0 1 51.624 12.996 Q 51.624 15.624 50.868 17.964 Q 50.112 20.304 48.546 22.086 A 10.429 10.429 0 0 1 45.574 24.408 A 12.692 12.692 0 0 1 44.55 24.894 Q 42.291 25.848 39.207 25.915 A 21.669 21.669 0 0 1 38.736 25.92 A 67.312 67.312 0 0 1 37.27 25.905 Q 36.11 25.88 35.154 25.812 Q 33.624 25.704 32.112 25.56 Z M 185.364 25.56 L 185.364 0.504 Q 187.056 0.324 188.676 0.234 A 54.471 54.471 0 0 1 190.183 0.173 Q 190.953 0.151 191.806 0.146 A 92.38 92.38 0 0 1 192.384 0.144 A 17.499 17.499 0 0 1 195.028 0.334 Q 196.646 0.581 197.982 1.152 A 11.152 11.152 0 0 1 200.606 2.707 A 9.8 9.8 0 0 1 201.87 3.924 Q 203.4 5.688 204.138 8.01 A 15.932 15.932 0 0 1 204.848 11.969 A 18.542 18.542 0 0 1 204.876 12.996 Q 204.876 15.624 204.12 17.964 Q 203.364 20.304 201.798 22.086 A 10.429 10.429 0 0 1 198.826 24.408 A 12.692 12.692 0 0 1 197.802 24.894 Q 195.543 25.848 192.459 25.915 A 21.669 21.669 0 0 1 191.988 25.92 A 67.312 67.312 0 0 1 190.522 25.905 Q 189.362 25.88 188.406 25.812 Q 186.876 25.704 185.364 25.56 Z M 25.632 25.632 L 22.212 25.632 L 22.212 0.432 L 25.632 0.432 L 25.632 25.632 Z M 122.724 25.632 L 119.304 25.632 L 119.304 0.432 L 122.724 0.432 L 122.724 25.632 Z M 213.336 25.632 L 209.916 25.632 L 209.916 0.432 L 213.336 0.432 L 213.336 25.632 Z M 247.5 25.632 L 244.08 25.632 L 244.08 0.432 L 247.5 0.432 L 247.5 25.632 Z M 35.532 3.276 L 35.532 22.752 Q 36.288 22.86 37.116 22.896 A 38.615 38.615 0 0 0 38.398 22.93 A 43.664 43.664 0 0 0 38.844 22.932 Q 41.427 22.932 43.255 22.131 A 7.211 7.211 0 0 0 44.136 21.672 Q 46.188 20.412 47.16 18.162 A 11.625 11.625 0 0 0 47.972 15.255 A 15.301 15.301 0 0 0 48.132 12.996 Q 48.132 10.404 47.16 8.136 Q 46.188 5.868 44.172 4.482 A 7.522 7.522 0 0 0 41.633 3.381 Q 40.611 3.136 39.419 3.102 A 13.683 13.683 0 0 0 39.024 3.096 Q 37.98 3.096 37.116 3.15 Q 36.252 3.204 35.532 3.276 Z M 188.784 3.276 L 188.784 22.752 Q 189.54 22.86 190.368 22.896 A 38.615 38.615 0 0 0 191.65 22.93 A 43.664 43.664 0 0 0 192.096 22.932 Q 194.679 22.932 196.507 22.131 A 7.211 7.211 0 0 0 197.388 21.672 Q 199.44 20.412 200.412 18.162 A 11.625 11.625 0 0 0 201.224 15.255 A 15.301 15.301 0 0 0 201.384 12.996 Q 201.384 10.404 200.412 8.136 Q 199.44 5.868 197.424 4.482 A 7.522 7.522 0 0 0 194.885 3.381 Q 193.863 3.136 192.671 3.102 A 13.683 13.683 0 0 0 192.276 3.096 Q 191.232 3.096 190.368 3.15 Q 189.504 3.204 188.784 3.276 Z M 280.116 3.816 L 275.364 15.912 L 284.832 15.912 L 280.116 3.816 Z M 3.42 3.168 L 3.42 11.628 L 7.38 11.628 A 9.536 9.536 0 0 0 9.152 11.473 Q 10.191 11.276 11.02 10.831 A 5.382 5.382 0 0 0 11.592 10.476 Q 13.212 9.324 13.212 7.164 A 3.532 3.532 0 0 0 12.034 4.477 A 4.778 4.778 0 0 0 11.7 4.194 Q 10.534 3.291 8.596 3.085 A 11.5 11.5 0 0 0 7.38 3.024 Q 6.237 3.024 5.314 3.055 A 42.834 42.834 0 0 0 5.184 3.06 Q 4.212 3.096 3.42 3.168 Z" vector-effect="non-scaling-stroke"/></g></svg>